<mxfile host="app.diagrams.net" agent="Mozilla/5.0 (Windows NT 10.0; Win64; x64) AppleWebKit/537.36 (KHTML, like Gecko) Chrome/139.0.0.0 Safari/537.36" version="28.2.0">
  <diagram id="R2lEEEUBdFMjLlhIrx00" name="Page-1">
    <mxGraphModel dx="3707" dy="2750" grid="0" gridSize="10" guides="1" tooltips="1" connect="1" arrows="1" fold="1" page="0" pageScale="1" pageWidth="850" pageHeight="1100" math="0" shadow="0" extFonts="Permanent Marker^https://fonts.googleapis.com/css?family=Permanent+Marker">
      <root>
        <mxCell id="0" />
        <mxCell id="1" parent="0" />
        <mxCell id="IGbk30I3KVgZnR77NlU7-1" value="&lt;font style=&quot;font-size: 20px;&quot;&gt;Students&lt;/font&gt;" style="rounded=0;whiteSpace=wrap;html=1;" vertex="1" parent="1">
          <mxGeometry x="-295" y="-420.5" width="100" height="51" as="geometry" />
        </mxCell>
        <mxCell id="IGbk30I3KVgZnR77NlU7-2" value="" style="endArrow=none;html=1;rounded=0;entryX=1;entryY=1;entryDx=0;entryDy=0;exitX=0;exitY=0;exitDx=0;exitDy=0;" edge="1" parent="1" source="IGbk30I3KVgZnR77NlU7-1" target="IGbk30I3KVgZnR77NlU7-3">
          <mxGeometry width="50" height="50" relative="1" as="geometry">
            <mxPoint x="-292" y="-409.5" as="sourcePoint" />
            <mxPoint x="-323" y="-472.5" as="targetPoint" />
          </mxGeometry>
        </mxCell>
        <mxCell id="IGbk30I3KVgZnR77NlU7-3" value="&lt;u&gt;id&lt;/u&gt;" style="ellipse;whiteSpace=wrap;html=1;" vertex="1" parent="1">
          <mxGeometry x="-376" y="-502.5" width="35" height="30" as="geometry" />
        </mxCell>
        <mxCell id="IGbk30I3KVgZnR77NlU7-4" value="" style="endArrow=none;html=1;rounded=0;entryX=0.5;entryY=1;entryDx=0;entryDy=0;exitX=0.25;exitY=0;exitDx=0;exitDy=0;" edge="1" parent="1" source="IGbk30I3KVgZnR77NlU7-1" target="IGbk30I3KVgZnR77NlU7-5">
          <mxGeometry width="50" height="50" relative="1" as="geometry">
            <mxPoint x="-275" y="-408.5" as="sourcePoint" />
            <mxPoint x="-251" y="-480.5" as="targetPoint" />
          </mxGeometry>
        </mxCell>
        <mxCell id="IGbk30I3KVgZnR77NlU7-5" value="name" style="ellipse;whiteSpace=wrap;html=1;" vertex="1" parent="1">
          <mxGeometry x="-335" y="-521.5" width="40" height="44" as="geometry" />
        </mxCell>
        <mxCell id="IGbk30I3KVgZnR77NlU7-6" value="" style="endArrow=none;html=1;rounded=0;exitX=0.4;exitY=0;exitDx=0;exitDy=0;exitPerimeter=0;" edge="1" parent="1" source="IGbk30I3KVgZnR77NlU7-1" target="IGbk30I3KVgZnR77NlU7-7">
          <mxGeometry width="50" height="50" relative="1" as="geometry">
            <mxPoint x="-232" y="-408.5" as="sourcePoint" />
            <mxPoint x="-188" y="-481.5" as="targetPoint" />
          </mxGeometry>
        </mxCell>
        <mxCell id="IGbk30I3KVgZnR77NlU7-7" value="surname" style="ellipse;whiteSpace=wrap;html=1;" vertex="1" parent="1">
          <mxGeometry x="-293" y="-529.5" width="66" height="43" as="geometry" />
        </mxCell>
        <mxCell id="IGbk30I3KVgZnR77NlU7-8" value="" style="endArrow=none;html=1;rounded=0;entryX=0;entryY=0.25;entryDx=0;entryDy=0;exitX=0.5;exitY=1;exitDx=0;exitDy=0;" edge="1" parent="1" source="IGbk30I3KVgZnR77NlU7-9" target="IGbk30I3KVgZnR77NlU7-1">
          <mxGeometry width="50" height="50" relative="1" as="geometry">
            <mxPoint x="-378" y="-418.5" as="sourcePoint" />
            <mxPoint x="-293" y="-400.5" as="targetPoint" />
          </mxGeometry>
        </mxCell>
        <mxCell id="IGbk30I3KVgZnR77NlU7-9" value="student number" style="ellipse;whiteSpace=wrap;html=1;" vertex="1" parent="1">
          <mxGeometry x="-402" y="-469.5" width="64" height="40" as="geometry" />
        </mxCell>
        <mxCell id="IGbk30I3KVgZnR77NlU7-10" value="" style="endArrow=none;html=1;rounded=0;entryX=0;entryY=0.5;entryDx=0;entryDy=0;exitX=0.986;exitY=0.776;exitDx=0;exitDy=0;exitPerimeter=0;" edge="1" parent="1" source="IGbk30I3KVgZnR77NlU7-11" target="IGbk30I3KVgZnR77NlU7-1">
          <mxGeometry width="50" height="50" relative="1" as="geometry">
            <mxPoint x="-383" y="-391.5" as="sourcePoint" />
            <mxPoint x="-299" y="-382.5" as="targetPoint" />
          </mxGeometry>
        </mxCell>
        <mxCell id="IGbk30I3KVgZnR77NlU7-11" value="username" style="ellipse;whiteSpace=wrap;html=1;" vertex="1" parent="1">
          <mxGeometry x="-425" y="-429.5" width="70" height="49" as="geometry" />
        </mxCell>
        <mxCell id="IGbk30I3KVgZnR77NlU7-12" value="" style="endArrow=none;html=1;rounded=0;entryX=0.008;entryY=0.633;entryDx=0;entryDy=0;entryPerimeter=0;exitX=1;exitY=0.5;exitDx=0;exitDy=0;" edge="1" parent="1" source="IGbk30I3KVgZnR77NlU7-13" target="IGbk30I3KVgZnR77NlU7-1">
          <mxGeometry width="50" height="50" relative="1" as="geometry">
            <mxPoint x="-342" y="-316.5" as="sourcePoint" />
            <mxPoint x="-292" y="-366.5" as="targetPoint" />
          </mxGeometry>
        </mxCell>
        <mxCell id="IGbk30I3KVgZnR77NlU7-13" value="password" style="ellipse;whiteSpace=wrap;html=1;" vertex="1" parent="1">
          <mxGeometry x="-418" y="-378.5" width="63" height="40" as="geometry" />
        </mxCell>
        <mxCell id="IGbk30I3KVgZnR77NlU7-14" value="street" style="ellipse;whiteSpace=wrap;html=1;" vertex="1" parent="1">
          <mxGeometry x="-224" y="-537.5" width="46" height="48" as="geometry" />
        </mxCell>
        <mxCell id="IGbk30I3KVgZnR77NlU7-15" value="number" style="ellipse;whiteSpace=wrap;html=1;" vertex="1" parent="1">
          <mxGeometry x="-175" y="-533.5" width="59" height="32" as="geometry" />
        </mxCell>
        <mxCell id="IGbk30I3KVgZnR77NlU7-16" value="city" style="ellipse;whiteSpace=wrap;html=1;" vertex="1" parent="1">
          <mxGeometry x="-374" y="-295.5" width="56" height="37" as="geometry" />
        </mxCell>
        <mxCell id="IGbk30I3KVgZnR77NlU7-17" value="postcode" style="ellipse;whiteSpace=wrap;html=1;" vertex="1" parent="1">
          <mxGeometry x="-411" y="-338.5" width="59" height="50" as="geometry" />
        </mxCell>
        <mxCell id="IGbk30I3KVgZnR77NlU7-18" value="landline" style="ellipse;whiteSpace=wrap;html=1;" vertex="1" parent="1">
          <mxGeometry x="-315" y="-288.5" width="55" height="39" as="geometry" />
        </mxCell>
        <mxCell id="IGbk30I3KVgZnR77NlU7-19" value="mobile" style="ellipse;whiteSpace=wrap;html=1;" vertex="1" parent="1">
          <mxGeometry x="-244" y="-351" width="62" height="53" as="geometry" />
        </mxCell>
        <mxCell id="IGbk30I3KVgZnR77NlU7-20" value="email" style="ellipse;whiteSpace=wrap;html=1;" vertex="1" parent="1">
          <mxGeometry x="-178" y="-494" width="50" height="48" as="geometry" />
        </mxCell>
        <mxCell id="IGbk30I3KVgZnR77NlU7-21" value="father name" style="ellipse;whiteSpace=wrap;html=1;" vertex="1" parent="1">
          <mxGeometry x="-263" y="-272" width="80" height="56" as="geometry" />
        </mxCell>
        <mxCell id="IGbk30I3KVgZnR77NlU7-22" value="" style="endArrow=none;html=1;rounded=0;entryX=0;entryY=1;entryDx=0;entryDy=0;exitX=1;exitY=0.38;exitDx=0;exitDy=0;exitPerimeter=0;" edge="1" parent="1" source="IGbk30I3KVgZnR77NlU7-17" target="IGbk30I3KVgZnR77NlU7-1">
          <mxGeometry width="50" height="50" relative="1" as="geometry">
            <mxPoint x="-355" y="-324.5" as="sourcePoint" />
            <mxPoint x="-295" y="-359.5" as="targetPoint" />
          </mxGeometry>
        </mxCell>
        <mxCell id="IGbk30I3KVgZnR77NlU7-23" value="" style="endArrow=none;html=1;rounded=0;entryX=0.083;entryY=1.05;entryDx=0;entryDy=0;entryPerimeter=0;exitX=0.5;exitY=0;exitDx=0;exitDy=0;" edge="1" parent="1" source="IGbk30I3KVgZnR77NlU7-16" target="IGbk30I3KVgZnR77NlU7-1">
          <mxGeometry width="50" height="50" relative="1" as="geometry">
            <mxPoint x="-325" y="-299.5" as="sourcePoint" />
            <mxPoint x="-275" y="-349.5" as="targetPoint" />
          </mxGeometry>
        </mxCell>
        <mxCell id="IGbk30I3KVgZnR77NlU7-24" value="" style="endArrow=none;html=1;rounded=0;exitX=0.5;exitY=0;exitDx=0;exitDy=0;entryX=0.075;entryY=0.731;entryDx=0;entryDy=0;entryPerimeter=0;" edge="1" parent="1" source="IGbk30I3KVgZnR77NlU7-1" target="IGbk30I3KVgZnR77NlU7-14">
          <mxGeometry width="50" height="50" relative="1" as="geometry">
            <mxPoint x="-221" y="-410.5" as="sourcePoint" />
            <mxPoint x="-171" y="-460.5" as="targetPoint" />
            <Array as="points" />
          </mxGeometry>
        </mxCell>
        <mxCell id="IGbk30I3KVgZnR77NlU7-25" value="" style="endArrow=none;html=1;rounded=0;exitX=0.658;exitY=0.017;exitDx=0;exitDy=0;exitPerimeter=0;entryX=0.027;entryY=0.75;entryDx=0;entryDy=0;entryPerimeter=0;" edge="1" parent="1" source="IGbk30I3KVgZnR77NlU7-1" target="IGbk30I3KVgZnR77NlU7-15">
          <mxGeometry width="50" height="50" relative="1" as="geometry">
            <mxPoint x="-218" y="-408.5" as="sourcePoint" />
            <mxPoint x="-168" y="-458.5" as="targetPoint" />
          </mxGeometry>
        </mxCell>
        <mxCell id="IGbk30I3KVgZnR77NlU7-27" value="" style="endArrow=none;html=1;rounded=0;entryX=0.04;entryY=0.729;entryDx=0;entryDy=0;entryPerimeter=0;exitX=0.925;exitY=0.017;exitDx=0;exitDy=0;exitPerimeter=0;" edge="1" parent="1" source="IGbk30I3KVgZnR77NlU7-1" target="IGbk30I3KVgZnR77NlU7-20">
          <mxGeometry width="50" height="50" relative="1" as="geometry">
            <mxPoint x="-197" y="-409.5" as="sourcePoint" />
            <mxPoint x="-147" y="-459.5" as="targetPoint" />
          </mxGeometry>
        </mxCell>
        <mxCell id="IGbk30I3KVgZnR77NlU7-28" value="" style="endArrow=none;html=1;rounded=0;entryX=0.175;entryY=1.017;entryDx=0;entryDy=0;entryPerimeter=0;exitX=0.436;exitY=0;exitDx=0;exitDy=0;exitPerimeter=0;" edge="1" parent="1" source="IGbk30I3KVgZnR77NlU7-18" target="IGbk30I3KVgZnR77NlU7-1">
          <mxGeometry width="50" height="50" relative="1" as="geometry">
            <mxPoint x="-287" y="-282.5" as="sourcePoint" />
            <mxPoint x="-243" y="-345.5" as="targetPoint" />
          </mxGeometry>
        </mxCell>
        <mxCell id="IGbk30I3KVgZnR77NlU7-29" value="" style="endArrow=none;html=1;rounded=0;exitX=0.5;exitY=0;exitDx=0;exitDy=0;entryX=0.831;entryY=1.026;entryDx=0;entryDy=0;entryPerimeter=0;" edge="1" parent="1" source="IGbk30I3KVgZnR77NlU7-19" target="IGbk30I3KVgZnR77NlU7-1">
          <mxGeometry width="50" height="50" relative="1" as="geometry">
            <mxPoint x="-244" y="-301.5" as="sourcePoint" />
            <mxPoint x="-194" y="-351.5" as="targetPoint" />
          </mxGeometry>
        </mxCell>
        <mxCell id="IGbk30I3KVgZnR77NlU7-32" value="" style="endArrow=none;html=1;rounded=0;entryX=0.433;entryY=0.983;entryDx=0;entryDy=0;entryPerimeter=0;exitX=0;exitY=0;exitDx=0;exitDy=0;" edge="1" parent="1" source="IGbk30I3KVgZnR77NlU7-21" target="IGbk30I3KVgZnR77NlU7-1">
          <mxGeometry width="50" height="50" relative="1" as="geometry">
            <mxPoint x="-258" y="-301.5" as="sourcePoint" />
            <mxPoint x="-208" y="-351.5" as="targetPoint" />
          </mxGeometry>
        </mxCell>
        <mxCell id="IGbk30I3KVgZnR77NlU7-33" value="Professors" style="rounded=0;whiteSpace=wrap;html=1;fontSize=20;" vertex="1" parent="1">
          <mxGeometry x="738" y="-474" width="120" height="60" as="geometry" />
        </mxCell>
        <mxCell id="IGbk30I3KVgZnR77NlU7-35" value="" style="endArrow=none;html=1;rounded=0;entryX=0.5;entryY=1;entryDx=0;entryDy=0;exitX=0.426;exitY=0.076;exitDx=0;exitDy=0;exitPerimeter=0;" edge="1" parent="1" source="IGbk30I3KVgZnR77NlU7-33" target="IGbk30I3KVgZnR77NlU7-36">
          <mxGeometry width="50" height="50" relative="1" as="geometry">
            <mxPoint x="899" y="-123" as="sourcePoint" />
            <mxPoint x="868" y="-186" as="targetPoint" />
          </mxGeometry>
        </mxCell>
        <mxCell id="IGbk30I3KVgZnR77NlU7-36" value="&lt;u&gt;id&lt;/u&gt;" style="ellipse;whiteSpace=wrap;html=1;" vertex="1" parent="1">
          <mxGeometry x="821" y="-640" width="35" height="30" as="geometry" />
        </mxCell>
        <mxCell id="IGbk30I3KVgZnR77NlU7-37" value="" style="endArrow=none;html=1;rounded=0;entryX=0.5;entryY=1;entryDx=0;entryDy=0;exitX=0.593;exitY=0.076;exitDx=0;exitDy=0;exitPerimeter=0;" edge="1" parent="1" source="IGbk30I3KVgZnR77NlU7-33" target="IGbk30I3KVgZnR77NlU7-38">
          <mxGeometry width="50" height="50" relative="1" as="geometry">
            <mxPoint x="916" y="-122" as="sourcePoint" />
            <mxPoint x="940" y="-194" as="targetPoint" />
          </mxGeometry>
        </mxCell>
        <mxCell id="IGbk30I3KVgZnR77NlU7-38" value="name" style="ellipse;whiteSpace=wrap;html=1;" vertex="1" parent="1">
          <mxGeometry x="858" y="-644" width="40" height="44" as="geometry" />
        </mxCell>
        <mxCell id="IGbk30I3KVgZnR77NlU7-39" value="" style="endArrow=none;html=1;rounded=0;exitX=0.75;exitY=0;exitDx=0;exitDy=0;" edge="1" parent="1" source="IGbk30I3KVgZnR77NlU7-33" target="IGbk30I3KVgZnR77NlU7-40">
          <mxGeometry width="50" height="50" relative="1" as="geometry">
            <mxPoint x="959" y="-122" as="sourcePoint" />
            <mxPoint x="1003" y="-195" as="targetPoint" />
          </mxGeometry>
        </mxCell>
        <mxCell id="IGbk30I3KVgZnR77NlU7-40" value="surname" style="ellipse;whiteSpace=wrap;html=1;" vertex="1" parent="1">
          <mxGeometry x="901" y="-644" width="66" height="43" as="geometry" />
        </mxCell>
        <mxCell id="IGbk30I3KVgZnR77NlU7-41" value="" style="endArrow=none;html=1;rounded=0;entryX=1;entryY=0.25;entryDx=0;entryDy=0;exitX=0.003;exitY=0.763;exitDx=0;exitDy=0;exitPerimeter=0;" edge="1" parent="1" source="IGbk30I3KVgZnR77NlU7-42" target="IGbk30I3KVgZnR77NlU7-33">
          <mxGeometry width="50" height="50" relative="1" as="geometry">
            <mxPoint x="813" y="-132" as="sourcePoint" />
            <mxPoint x="898" y="-114" as="targetPoint" />
          </mxGeometry>
        </mxCell>
        <mxCell id="IGbk30I3KVgZnR77NlU7-42" value="topic" style="ellipse;whiteSpace=wrap;html=1;" vertex="1" parent="1">
          <mxGeometry x="1023" y="-540" width="64" height="40" as="geometry" />
        </mxCell>
        <mxCell id="IGbk30I3KVgZnR77NlU7-43" value="" style="endArrow=none;html=1;rounded=0;entryX=0.25;entryY=0;entryDx=0;entryDy=0;exitX=0.5;exitY=1;exitDx=0;exitDy=0;" edge="1" parent="1" source="IGbk30I3KVgZnR77NlU7-44" target="IGbk30I3KVgZnR77NlU7-33">
          <mxGeometry width="50" height="50" relative="1" as="geometry">
            <mxPoint x="808" y="-105" as="sourcePoint" />
            <mxPoint x="892" y="-96" as="targetPoint" />
          </mxGeometry>
        </mxCell>
        <mxCell id="IGbk30I3KVgZnR77NlU7-44" value="username" style="ellipse;whiteSpace=wrap;html=1;" vertex="1" parent="1">
          <mxGeometry x="747" y="-644" width="70" height="49" as="geometry" />
        </mxCell>
        <mxCell id="IGbk30I3KVgZnR77NlU7-45" value="" style="endArrow=none;html=1;rounded=0;entryX=0.105;entryY=0.029;entryDx=0;entryDy=0;entryPerimeter=0;exitX=1;exitY=1;exitDx=0;exitDy=0;" edge="1" parent="1" source="IGbk30I3KVgZnR77NlU7-46" target="IGbk30I3KVgZnR77NlU7-33">
          <mxGeometry width="50" height="50" relative="1" as="geometry">
            <mxPoint x="849" y="-30" as="sourcePoint" />
            <mxPoint x="899" y="-80" as="targetPoint" />
          </mxGeometry>
        </mxCell>
        <mxCell id="IGbk30I3KVgZnR77NlU7-46" value="password" style="ellipse;whiteSpace=wrap;html=1;" vertex="1" parent="1">
          <mxGeometry x="686" y="-626" width="63" height="40" as="geometry" />
        </mxCell>
        <mxCell id="IGbk30I3KVgZnR77NlU7-47" value="University" style="ellipse;whiteSpace=wrap;html=1;" vertex="1" parent="1">
          <mxGeometry x="890" y="-338.5" width="64" height="48" as="geometry" />
        </mxCell>
        <mxCell id="IGbk30I3KVgZnR77NlU7-48" value="department" style="ellipse;whiteSpace=wrap;html=1;" vertex="1" parent="1">
          <mxGeometry x="584" y="-565.5" width="72" height="32" as="geometry" />
        </mxCell>
        <mxCell id="IGbk30I3KVgZnR77NlU7-51" value="landline" style="ellipse;whiteSpace=wrap;html=1;" vertex="1" parent="1">
          <mxGeometry x="623" y="-621" width="55" height="39" as="geometry" />
        </mxCell>
        <mxCell id="IGbk30I3KVgZnR77NlU7-52" value="mobile" style="ellipse;whiteSpace=wrap;html=1;" vertex="1" parent="1">
          <mxGeometry x="954" y="-618.5" width="62" height="53" as="geometry" />
        </mxCell>
        <mxCell id="IGbk30I3KVgZnR77NlU7-53" value="email" style="ellipse;whiteSpace=wrap;html=1;" vertex="1" parent="1">
          <mxGeometry x="1016" y="-586" width="50" height="48" as="geometry" />
        </mxCell>
        <mxCell id="IGbk30I3KVgZnR77NlU7-57" value="" style="endArrow=none;html=1;rounded=0;entryX=0.104;entryY=0.283;entryDx=0;entryDy=0;entryPerimeter=0;exitX=0.886;exitY=0.977;exitDx=0;exitDy=0;exitPerimeter=0;" edge="1" parent="1" source="IGbk30I3KVgZnR77NlU7-33" target="IGbk30I3KVgZnR77NlU7-47">
          <mxGeometry width="50" height="50" relative="1" as="geometry">
            <mxPoint x="933" y="-180" as="sourcePoint" />
            <mxPoint x="1020" y="-174" as="targetPoint" />
            <Array as="points" />
          </mxGeometry>
        </mxCell>
        <mxCell id="IGbk30I3KVgZnR77NlU7-58" value="" style="endArrow=none;html=1;rounded=0;entryX=0.612;entryY=0.971;entryDx=0;entryDy=0;entryPerimeter=0;exitX=0;exitY=0.25;exitDx=0;exitDy=0;" edge="1" parent="1" source="IGbk30I3KVgZnR77NlU7-33" target="IGbk30I3KVgZnR77NlU7-48">
          <mxGeometry width="50" height="50" relative="1" as="geometry">
            <mxPoint x="942" y="-346" as="sourcePoint" />
            <mxPoint x="1023" y="-172" as="targetPoint" />
          </mxGeometry>
        </mxCell>
        <mxCell id="IGbk30I3KVgZnR77NlU7-59" value="" style="endArrow=none;html=1;rounded=0;entryX=0.04;entryY=0.729;entryDx=0;entryDy=0;entryPerimeter=0;exitX=1;exitY=0;exitDx=0;exitDy=0;" edge="1" parent="1" source="IGbk30I3KVgZnR77NlU7-33" target="IGbk30I3KVgZnR77NlU7-53">
          <mxGeometry width="50" height="50" relative="1" as="geometry">
            <mxPoint x="994" y="-123" as="sourcePoint" />
            <mxPoint x="1044" y="-173" as="targetPoint" />
          </mxGeometry>
        </mxCell>
        <mxCell id="IGbk30I3KVgZnR77NlU7-60" value="" style="endArrow=none;html=1;rounded=0;entryX=0;entryY=0;entryDx=0;entryDy=0;exitX=1;exitY=1;exitDx=0;exitDy=0;" edge="1" parent="1" source="IGbk30I3KVgZnR77NlU7-51" target="IGbk30I3KVgZnR77NlU7-33">
          <mxGeometry width="50" height="50" relative="1" as="geometry">
            <mxPoint x="904" y="4" as="sourcePoint" />
            <mxPoint x="948" y="-59" as="targetPoint" />
          </mxGeometry>
        </mxCell>
        <mxCell id="IGbk30I3KVgZnR77NlU7-61" value="" style="endArrow=none;html=1;rounded=0;exitX=0;exitY=0.5;exitDx=0;exitDy=0;entryX=0.854;entryY=0.056;entryDx=0;entryDy=0;entryPerimeter=0;" edge="1" parent="1" source="IGbk30I3KVgZnR77NlU7-52" target="IGbk30I3KVgZnR77NlU7-33">
          <mxGeometry width="50" height="50" relative="1" as="geometry">
            <mxPoint x="947" y="-15" as="sourcePoint" />
            <mxPoint x="997" y="-65" as="targetPoint" />
          </mxGeometry>
        </mxCell>
        <mxCell id="IGbk30I3KVgZnR77NlU7-64" value="Secretariat" style="rounded=0;whiteSpace=wrap;html=1;fontSize=20;" vertex="1" parent="1">
          <mxGeometry x="248" y="-776" width="120" height="60" as="geometry" />
        </mxCell>
        <mxCell id="IGbk30I3KVgZnR77NlU7-65" value="" style="endArrow=none;html=1;rounded=0;exitX=0.75;exitY=0;exitDx=0;exitDy=0;entryX=0;entryY=1;entryDx=0;entryDy=0;" edge="1" parent="1" source="IGbk30I3KVgZnR77NlU7-64" target="IGbk30I3KVgZnR77NlU7-73">
          <mxGeometry width="50" height="50" relative="1" as="geometry">
            <mxPoint x="214.25" y="-699" as="sourcePoint" />
            <mxPoint x="241.25" y="-779" as="targetPoint" />
          </mxGeometry>
        </mxCell>
        <mxCell id="IGbk30I3KVgZnR77NlU7-66" value="" style="endArrow=none;html=1;rounded=0;exitX=0.5;exitY=0;exitDx=0;exitDy=0;entryX=0.5;entryY=1;entryDx=0;entryDy=0;" edge="1" parent="1" source="IGbk30I3KVgZnR77NlU7-64" target="IGbk30I3KVgZnR77NlU7-71">
          <mxGeometry width="50" height="50" relative="1" as="geometry">
            <mxPoint x="185.25" y="-697" as="sourcePoint" />
            <mxPoint x="200.25" y="-772" as="targetPoint" />
          </mxGeometry>
        </mxCell>
        <mxCell id="IGbk30I3KVgZnR77NlU7-67" value="" style="endArrow=none;html=1;rounded=0;exitX=0.25;exitY=0;exitDx=0;exitDy=0;entryX=0.5;entryY=1;entryDx=0;entryDy=0;" edge="1" parent="1" source="IGbk30I3KVgZnR77NlU7-64" target="IGbk30I3KVgZnR77NlU7-70">
          <mxGeometry width="50" height="50" relative="1" as="geometry">
            <mxPoint x="153.25" y="-716" as="sourcePoint" />
            <mxPoint x="153.25" y="-780" as="targetPoint" />
          </mxGeometry>
        </mxCell>
        <mxCell id="IGbk30I3KVgZnR77NlU7-68" value="" style="endArrow=none;html=1;rounded=0;exitX=0;exitY=0;exitDx=0;exitDy=0;entryX=0.5;entryY=1;entryDx=0;entryDy=0;" edge="1" parent="1" source="IGbk30I3KVgZnR77NlU7-64" target="IGbk30I3KVgZnR77NlU7-69">
          <mxGeometry width="50" height="50" relative="1" as="geometry">
            <mxPoint x="109.25" y="-708" as="sourcePoint" />
            <mxPoint x="92.25" y="-767" as="targetPoint" />
          </mxGeometry>
        </mxCell>
        <mxCell id="IGbk30I3KVgZnR77NlU7-69" value="&lt;u&gt;id&lt;/u&gt;" style="ellipse;whiteSpace=wrap;html=1;" vertex="1" parent="1">
          <mxGeometry x="156.25" y="-832" width="45" height="38" as="geometry" />
        </mxCell>
        <mxCell id="IGbk30I3KVgZnR77NlU7-70" value="email" style="ellipse;whiteSpace=wrap;html=1;" vertex="1" parent="1">
          <mxGeometry x="208.25" y="-837" width="53" height="39" as="geometry" />
        </mxCell>
        <mxCell id="IGbk30I3KVgZnR77NlU7-71" value="username" style="ellipse;whiteSpace=wrap;html=1;" vertex="1" parent="1">
          <mxGeometry x="265.25" y="-838" width="62" height="39" as="geometry" />
        </mxCell>
        <mxCell id="IGbk30I3KVgZnR77NlU7-73" value="password" style="ellipse;whiteSpace=wrap;html=1;" vertex="1" parent="1">
          <mxGeometry x="338.25" y="-837" width="72" height="38" as="geometry" />
        </mxCell>
        <mxCell id="IGbk30I3KVgZnR77NlU7-75" value="" style="endArrow=none;html=1;rounded=0;entryX=1;entryY=1;entryDx=0;entryDy=0;exitX=0;exitY=0;exitDx=0;exitDy=45;exitPerimeter=0;" edge="1" parent="1" source="IGbk30I3KVgZnR77NlU7-244" target="IGbk30I3KVgZnR77NlU7-76">
          <mxGeometry width="50" height="50" relative="1" as="geometry">
            <mxPoint x="215" y="110" as="sourcePoint" />
            <mxPoint x="656" y="408" as="targetPoint" />
          </mxGeometry>
        </mxCell>
        <mxCell id="IGbk30I3KVgZnR77NlU7-76" value="&lt;u&gt;id&lt;/u&gt;" style="ellipse;whiteSpace=wrap;html=1;" vertex="1" parent="1">
          <mxGeometry x="137" y="143" width="47" height="39" as="geometry" />
        </mxCell>
        <mxCell id="IGbk30I3KVgZnR77NlU7-77" value="" style="endArrow=none;html=1;rounded=0;exitX=0;exitY=0;exitDx=25;exitDy=60;entryX=0.4;entryY=0.974;entryDx=0;entryDy=0;entryPerimeter=0;exitPerimeter=0;" edge="1" parent="1" source="IGbk30I3KVgZnR77NlU7-244" target="IGbk30I3KVgZnR77NlU7-78">
          <mxGeometry width="50" height="50" relative="1" as="geometry">
            <mxPoint x="245" y="110" as="sourcePoint" />
            <mxPoint x="732" y="375" as="targetPoint" />
          </mxGeometry>
        </mxCell>
        <mxCell id="IGbk30I3KVgZnR77NlU7-78" value="professor id" style="ellipse;whiteSpace=wrap;html=1;" vertex="1" parent="1">
          <mxGeometry x="184" y="159" width="73" height="46" as="geometry" />
        </mxCell>
        <mxCell id="IGbk30I3KVgZnR77NlU7-79" value="" style="endArrow=none;html=1;rounded=0;exitX=0.5;exitY=1;exitDx=0;exitDy=0;entryX=0.5;entryY=0;entryDx=0;entryDy=0;exitPerimeter=0;" edge="1" parent="1" source="IGbk30I3KVgZnR77NlU7-244" target="IGbk30I3KVgZnR77NlU7-80">
          <mxGeometry width="50" height="50" relative="1" as="geometry">
            <mxPoint x="275" y="110" as="sourcePoint" />
            <mxPoint x="795" y="423" as="targetPoint" />
          </mxGeometry>
        </mxCell>
        <mxCell id="IGbk30I3KVgZnR77NlU7-80" value="title" style="ellipse;whiteSpace=wrap;html=1;" vertex="1" parent="1">
          <mxGeometry x="234" y="207.5" width="55" height="44" as="geometry" />
        </mxCell>
        <mxCell id="IGbk30I3KVgZnR77NlU7-81" value="" style="endArrow=none;html=1;rounded=0;exitX=0;exitY=0;exitDx=75;exitDy=60;entryX=0.5;entryY=0;entryDx=0;entryDy=0;exitPerimeter=0;" edge="1" parent="1" source="IGbk30I3KVgZnR77NlU7-244" target="IGbk30I3KVgZnR77NlU7-82">
          <mxGeometry width="50" height="50" relative="1" as="geometry">
            <mxPoint x="316.87999999999965" y="108.86000000000013" as="sourcePoint" />
            <mxPoint x="828" y="422" as="targetPoint" />
          </mxGeometry>
        </mxCell>
        <mxCell id="IGbk30I3KVgZnR77NlU7-82" value="summary" style="ellipse;whiteSpace=wrap;html=1;" vertex="1" parent="1">
          <mxGeometry x="279" y="159" width="58" height="51" as="geometry" />
        </mxCell>
        <mxCell id="IGbk30I3KVgZnR77NlU7-84" value="pdf filename" style="ellipse;whiteSpace=wrap;html=1;" vertex="1" parent="1">
          <mxGeometry x="71" y="125" width="69" height="38" as="geometry" />
        </mxCell>
        <mxCell id="IGbk30I3KVgZnR77NlU7-85" value="" style="endArrow=none;html=1;rounded=0;exitX=0;exitY=0;exitDx=0;exitDy=15;entryX=0.072;entryY=0.25;entryDx=0;entryDy=0;entryPerimeter=0;exitPerimeter=0;" edge="1" parent="1" source="IGbk30I3KVgZnR77NlU7-244" target="IGbk30I3KVgZnR77NlU7-88">
          <mxGeometry width="50" height="50" relative="1" as="geometry">
            <mxPoint x="215" y="65" as="sourcePoint" />
            <mxPoint x="880" y="467" as="targetPoint" />
          </mxGeometry>
        </mxCell>
        <mxCell id="IGbk30I3KVgZnR77NlU7-86" value="" style="endArrow=none;html=1;rounded=0;exitX=0;exitY=0.5;exitDx=0;exitDy=0;entryX=1;entryY=0;entryDx=0;entryDy=0;exitPerimeter=0;" edge="1" parent="1" source="IGbk30I3KVgZnR77NlU7-244" target="IGbk30I3KVgZnR77NlU7-84">
          <mxGeometry width="50" height="50" relative="1" as="geometry">
            <mxPoint x="215" y="80" as="sourcePoint" />
            <mxPoint x="860.573593128807" y="473.2842712474617" as="targetPoint" />
          </mxGeometry>
        </mxCell>
        <mxCell id="IGbk30I3KVgZnR77NlU7-88" value="created at" style="ellipse;whiteSpace=wrap;html=1;" vertex="1" parent="1">
          <mxGeometry x="57" y="80" width="69" height="40" as="geometry" />
        </mxCell>
        <mxCell id="IGbk30I3KVgZnR77NlU7-90" value="" style="endArrow=none;html=1;rounded=0;entryX=1;entryY=1;entryDx=0;entryDy=0;exitX=0.174;exitY=-0.004;exitDx=0;exitDy=0;exitPerimeter=0;" edge="1" parent="1" source="IGbk30I3KVgZnR77NlU7-255" target="IGbk30I3KVgZnR77NlU7-91">
          <mxGeometry width="50" height="50" relative="1" as="geometry">
            <mxPoint x="228.69999999999982" y="-213.34799999999996" as="sourcePoint" />
            <mxPoint x="-122" y="192" as="targetPoint" />
          </mxGeometry>
        </mxCell>
        <mxCell id="IGbk30I3KVgZnR77NlU7-91" value="&lt;u&gt;id&lt;/u&gt;" style="ellipse;whiteSpace=wrap;html=1;" vertex="1" parent="1">
          <mxGeometry x="184" y="-310" width="35" height="30" as="geometry" />
        </mxCell>
        <mxCell id="IGbk30I3KVgZnR77NlU7-94" value="" style="endArrow=none;html=1;rounded=0;exitX=0.397;exitY=0.075;exitDx=0;exitDy=0;exitPerimeter=0;" edge="1" parent="1" source="IGbk30I3KVgZnR77NlU7-255" target="IGbk30I3KVgZnR77NlU7-95">
          <mxGeometry width="50" height="50" relative="1" as="geometry">
            <mxPoint x="254" y="-216" as="sourcePoint" />
            <mxPoint x="13" y="183" as="targetPoint" />
          </mxGeometry>
        </mxCell>
        <mxCell id="IGbk30I3KVgZnR77NlU7-95" value="topic id" style="ellipse;whiteSpace=wrap;html=1;" vertex="1" parent="1">
          <mxGeometry x="204" y="-372" width="48" height="42" as="geometry" />
        </mxCell>
        <mxCell id="IGbk30I3KVgZnR77NlU7-96" value="" style="endArrow=none;html=1;rounded=0;entryX=0;entryY=0;entryDx=0;entryDy=0;exitX=0.5;exitY=1;exitDx=0;exitDy=0;entryPerimeter=0;" edge="1" parent="1" source="IGbk30I3KVgZnR77NlU7-97" target="IGbk30I3KVgZnR77NlU7-255">
          <mxGeometry width="50" height="50" relative="1" as="geometry">
            <mxPoint x="-177" y="246" as="sourcePoint" />
            <mxPoint x="214" y="-203.25" as="targetPoint" />
          </mxGeometry>
        </mxCell>
        <mxCell id="IGbk30I3KVgZnR77NlU7-97" value="presentation link" style="ellipse;whiteSpace=wrap;html=1;" vertex="1" parent="1">
          <mxGeometry x="123" y="-344.5" width="79" height="40" as="geometry" />
        </mxCell>
        <mxCell id="IGbk30I3KVgZnR77NlU7-98" value="" style="endArrow=none;html=1;rounded=0;entryX=0.891;entryY=0.035;entryDx=0;entryDy=0;exitX=0.5;exitY=1;exitDx=0;exitDy=0;entryPerimeter=0;" edge="1" parent="1" source="IGbk30I3KVgZnR77NlU7-99" target="IGbk30I3KVgZnR77NlU7-255">
          <mxGeometry width="50" height="50" relative="1" as="geometry">
            <mxPoint x="-182" y="273" as="sourcePoint" />
            <mxPoint x="314" y="-216" as="targetPoint" />
          </mxGeometry>
        </mxCell>
        <mxCell id="IGbk30I3KVgZnR77NlU7-99" value="review date" style="ellipse;whiteSpace=wrap;html=1;" vertex="1" parent="1">
          <mxGeometry x="360" y="-376.5" width="70" height="49" as="geometry" />
        </mxCell>
        <mxCell id="IGbk30I3KVgZnR77NlU7-100" value="" style="endArrow=none;html=1;rounded=0;entryX=0;entryY=0;entryDx=0;entryDy=45;exitX=1;exitY=0.5;exitDx=0;exitDy=0;entryPerimeter=0;" edge="1" parent="1" source="IGbk30I3KVgZnR77NlU7-101" target="IGbk30I3KVgZnR77NlU7-255">
          <mxGeometry width="50" height="50" relative="1" as="geometry">
            <mxPoint x="-141" y="348" as="sourcePoint" />
            <mxPoint x="214" y="-177.75" as="targetPoint" />
          </mxGeometry>
        </mxCell>
        <mxCell id="IGbk30I3KVgZnR77NlU7-101" value="presentation room" style="ellipse;whiteSpace=wrap;html=1;" vertex="1" parent="1">
          <mxGeometry x="56" y="-197" width="81" height="40" as="geometry" />
        </mxCell>
        <mxCell id="IGbk30I3KVgZnR77NlU7-103" value="status" style="ellipse;whiteSpace=wrap;html=1;" vertex="1" parent="1">
          <mxGeometry x="245.5" y="-410.5" width="59" height="32" as="geometry" />
        </mxCell>
        <mxCell id="IGbk30I3KVgZnR77NlU7-104" value="cancellation reason" style="ellipse;whiteSpace=wrap;html=1;" vertex="1" parent="1">
          <mxGeometry x="103" y="-97" width="75" height="37" as="geometry" />
        </mxCell>
        <mxCell id="IGbk30I3KVgZnR77NlU7-105" value="assignment date" style="ellipse;whiteSpace=wrap;html=1;" vertex="1" parent="1">
          <mxGeometry x="74" y="-155" width="80" height="50" as="geometry" />
        </mxCell>
        <mxCell id="IGbk30I3KVgZnR77NlU7-107" value="presentation date" style="ellipse;whiteSpace=wrap;html=1;" vertex="1" parent="1">
          <mxGeometry x="310" y="-429.5" width="77" height="53" as="geometry" />
        </mxCell>
        <mxCell id="IGbk30I3KVgZnR77NlU7-108" value="email" style="ellipse;whiteSpace=wrap;html=1;" vertex="1" parent="1">
          <mxGeometry x="307" y="-354" width="50" height="48" as="geometry" />
        </mxCell>
        <mxCell id="IGbk30I3KVgZnR77NlU7-109" value="student id" style="ellipse;whiteSpace=wrap;html=1;" vertex="1" parent="1">
          <mxGeometry x="385.5" y="-327.5" width="63.5" height="50" as="geometry" />
        </mxCell>
        <mxCell id="IGbk30I3KVgZnR77NlU7-110" value="" style="endArrow=none;html=1;rounded=0;entryX=0.021;entryY=0.878;entryDx=0;entryDy=0;exitX=1;exitY=0;exitDx=0;exitDy=0;entryPerimeter=0;" edge="1" parent="1" source="IGbk30I3KVgZnR77NlU7-105" target="IGbk30I3KVgZnR77NlU7-255">
          <mxGeometry width="50" height="50" relative="1" as="geometry">
            <mxPoint x="-154" y="340" as="sourcePoint" />
            <mxPoint x="214" y="-165.00000000000023" as="targetPoint" />
          </mxGeometry>
        </mxCell>
        <mxCell id="IGbk30I3KVgZnR77NlU7-111" value="" style="endArrow=none;html=1;rounded=0;entryX=0.079;entryY=1.016;entryDx=0;entryDy=0;exitX=1;exitY=0;exitDx=0;exitDy=0;entryPerimeter=0;" edge="1" parent="1" source="IGbk30I3KVgZnR77NlU7-104" target="IGbk30I3KVgZnR77NlU7-255">
          <mxGeometry width="50" height="50" relative="1" as="geometry">
            <mxPoint x="-124" y="365" as="sourcePoint" />
            <mxPoint x="239" y="-165.00000000000023" as="targetPoint" />
          </mxGeometry>
        </mxCell>
        <mxCell id="IGbk30I3KVgZnR77NlU7-113" value="" style="endArrow=none;html=1;rounded=0;exitX=0.5;exitY=0;exitDx=0;exitDy=0;exitPerimeter=0;entryX=0.373;entryY=0.985;entryDx=0;entryDy=0;entryPerimeter=0;" edge="1" parent="1" source="IGbk30I3KVgZnR77NlU7-255" target="IGbk30I3KVgZnR77NlU7-103">
          <mxGeometry width="50" height="50" relative="1" as="geometry">
            <mxPoint x="279.8000000000002" y="-215.13300000000004" as="sourcePoint" />
            <mxPoint x="33" y="206" as="targetPoint" />
          </mxGeometry>
        </mxCell>
        <mxCell id="IGbk30I3KVgZnR77NlU7-114" value="" style="endArrow=none;html=1;rounded=0;entryX=0.5;entryY=1;entryDx=0;entryDy=0;exitX=0;exitY=0;exitDx=75;exitDy=0;exitPerimeter=0;" edge="1" parent="1" source="IGbk30I3KVgZnR77NlU7-255" target="IGbk30I3KVgZnR77NlU7-108">
          <mxGeometry width="50" height="50" relative="1" as="geometry">
            <mxPoint x="306.5" y="-215.13300000000004" as="sourcePoint" />
            <mxPoint x="54" y="205" as="targetPoint" />
          </mxGeometry>
        </mxCell>
        <mxCell id="IGbk30I3KVgZnR77NlU7-116" value="" style="endArrow=none;html=1;rounded=0;exitX=0;exitY=0.5;exitDx=0;exitDy=0;entryX=0.609;entryY=0.055;entryDx=0;entryDy=0;entryPerimeter=0;" edge="1" parent="1" source="IGbk30I3KVgZnR77NlU7-107" target="IGbk30I3KVgZnR77NlU7-255">
          <mxGeometry width="50" height="50" relative="1" as="geometry">
            <mxPoint x="-43" y="363" as="sourcePoint" />
            <mxPoint x="289" y="-216" as="targetPoint" />
          </mxGeometry>
        </mxCell>
        <mxCell id="IGbk30I3KVgZnR77NlU7-117" value="" style="endArrow=none;html=1;rounded=0;entryX=1;entryY=0;entryDx=0;entryDy=0;entryPerimeter=0;" edge="1" parent="1" source="IGbk30I3KVgZnR77NlU7-109" target="IGbk30I3KVgZnR77NlU7-255">
          <mxGeometry width="50" height="50" relative="1" as="geometry">
            <mxPoint x="-57" y="363" as="sourcePoint" />
            <mxPoint x="314" y="-203.25" as="targetPoint" />
          </mxGeometry>
        </mxCell>
        <mxCell id="IGbk30I3KVgZnR77NlU7-119" value="" style="endArrow=none;html=1;rounded=0;entryX=1;entryY=1;entryDx=0;entryDy=0;exitX=0.657;exitY=0.008;exitDx=0;exitDy=0;exitPerimeter=0;" edge="1" parent="1" source="IGbk30I3KVgZnR77NlU7-249" target="IGbk30I3KVgZnR77NlU7-120">
          <mxGeometry width="50" height="50" relative="1" as="geometry">
            <mxPoint x="941.6399999999999" y="194.86000000000013" as="sourcePoint" />
            <mxPoint x="535" y="284" as="targetPoint" />
          </mxGeometry>
        </mxCell>
        <mxCell id="IGbk30I3KVgZnR77NlU7-120" value="&lt;u&gt;id&lt;/u&gt;" style="ellipse;whiteSpace=wrap;html=1;" vertex="1" parent="1">
          <mxGeometry x="1016" y="89" width="35" height="30" as="geometry" />
        </mxCell>
        <mxCell id="IGbk30I3KVgZnR77NlU7-121" value="" style="endArrow=none;html=1;rounded=0;exitX=0;exitY=0;exitDx=183;exitDy=20.75;exitPerimeter=0;" edge="1" parent="1" source="IGbk30I3KVgZnR77NlU7-249" target="IGbk30I3KVgZnR77NlU7-122">
          <mxGeometry width="50" height="50" relative="1" as="geometry">
            <mxPoint x="989" y="236.75" as="sourcePoint" />
            <mxPoint x="670" y="275" as="targetPoint" />
          </mxGeometry>
        </mxCell>
        <mxCell id="IGbk30I3KVgZnR77NlU7-122" value="theses id" style="ellipse;whiteSpace=wrap;html=1;" vertex="1" parent="1">
          <mxGeometry x="1071" y="254" width="48" height="42" as="geometry" />
        </mxCell>
        <mxCell id="IGbk30I3KVgZnR77NlU7-123" value="" style="endArrow=none;html=1;rounded=0;entryX=1;entryY=0.5;entryDx=0;entryDy=0;exitX=0.5;exitY=1;exitDx=0;exitDy=0;entryPerimeter=0;" edge="1" parent="1" source="IGbk30I3KVgZnR77NlU7-124" target="IGbk30I3KVgZnR77NlU7-249">
          <mxGeometry width="50" height="50" relative="1" as="geometry">
            <mxPoint x="480" y="338" as="sourcePoint" />
            <mxPoint x="988.9999999999995" y="251.50000000000045" as="targetPoint" />
          </mxGeometry>
        </mxCell>
        <mxCell id="IGbk30I3KVgZnR77NlU7-124" value="responded at" style="ellipse;whiteSpace=wrap;html=1;" vertex="1" parent="1">
          <mxGeometry x="1016" y="296" width="79" height="40" as="geometry" />
        </mxCell>
        <mxCell id="IGbk30I3KVgZnR77NlU7-129" value="professor id" style="ellipse;whiteSpace=wrap;html=1;" vertex="1" parent="1">
          <mxGeometry x="1065" y="206.5" width="59" height="32" as="geometry" />
        </mxCell>
        <mxCell id="IGbk30I3KVgZnR77NlU7-132" value="status" style="ellipse;whiteSpace=wrap;html=1;" vertex="1" parent="1">
          <mxGeometry x="1039" y="119" width="60" height="37" as="geometry" />
        </mxCell>
        <mxCell id="IGbk30I3KVgZnR77NlU7-133" value="invited at" style="ellipse;whiteSpace=wrap;html=1;" vertex="1" parent="1">
          <mxGeometry x="1071" y="156" width="50" height="48" as="geometry" />
        </mxCell>
        <mxCell id="IGbk30I3KVgZnR77NlU7-137" value="" style="endArrow=none;html=1;rounded=0;exitX=1;exitY=0.114;exitDx=0;exitDy=0;entryX=0.373;entryY=0.985;entryDx=0;entryDy=0;entryPerimeter=0;exitPerimeter=0;" edge="1" parent="1" source="IGbk30I3KVgZnR77NlU7-249" target="IGbk30I3KVgZnR77NlU7-129">
          <mxGeometry width="50" height="50" relative="1" as="geometry">
            <mxPoint x="989" y="222" as="sourcePoint" />
            <mxPoint x="690" y="298" as="targetPoint" />
          </mxGeometry>
        </mxCell>
        <mxCell id="IGbk30I3KVgZnR77NlU7-138" value="" style="endArrow=none;html=1;rounded=0;entryX=0.04;entryY=0.729;entryDx=0;entryDy=0;entryPerimeter=0;exitX=0.897;exitY=-0.027;exitDx=0;exitDy=0;exitPerimeter=0;" edge="1" parent="1" source="IGbk30I3KVgZnR77NlU7-249" target="IGbk30I3KVgZnR77NlU7-133">
          <mxGeometry width="50" height="50" relative="1" as="geometry">
            <mxPoint x="977.9000000000001" y="193.50300000000016" as="sourcePoint" />
            <mxPoint x="711" y="297" as="targetPoint" />
          </mxGeometry>
        </mxCell>
        <mxCell id="IGbk30I3KVgZnR77NlU7-139" value="" style="endArrow=none;html=1;rounded=0;exitX=0;exitY=1;exitDx=0;exitDy=0;entryX=0;entryY=0;entryDx=137.25;entryDy=0;entryPerimeter=0;" edge="1" parent="1" source="IGbk30I3KVgZnR77NlU7-132" target="IGbk30I3KVgZnR77NlU7-249">
          <mxGeometry width="50" height="50" relative="1" as="geometry">
            <mxPoint x="614" y="455" as="sourcePoint" />
            <mxPoint x="951.9999999999995" y="192.5" as="targetPoint" />
          </mxGeometry>
        </mxCell>
        <mxCell id="IGbk30I3KVgZnR77NlU7-157" value="" style="endArrow=none;html=1;rounded=0;entryX=0.5;entryY=1;entryDx=0;entryDy=0;exitX=0;exitY=0;exitDx=44.25;exitDy=0;exitPerimeter=0;" edge="1" parent="1" source="IGbk30I3KVgZnR77NlU7-258" target="IGbk30I3KVgZnR77NlU7-158">
          <mxGeometry width="50" height="50" relative="1" as="geometry">
            <mxPoint x="1311.7239999999997" y="-504.6400000000003" as="sourcePoint" />
            <mxPoint x="1337" y="-519" as="targetPoint" />
          </mxGeometry>
        </mxCell>
        <mxCell id="IGbk30I3KVgZnR77NlU7-158" value="&lt;u&gt;id&lt;/u&gt;" style="ellipse;whiteSpace=wrap;html=1;" vertex="1" parent="1">
          <mxGeometry x="1288" y="-578" width="35" height="30" as="geometry" />
        </mxCell>
        <mxCell id="IGbk30I3KVgZnR77NlU7-159" value="" style="endArrow=none;html=1;rounded=0;exitX=0.402;exitY=0.032;exitDx=0;exitDy=0;exitPerimeter=0;" edge="1" parent="1" source="IGbk30I3KVgZnR77NlU7-258" target="IGbk30I3KVgZnR77NlU7-160">
          <mxGeometry width="50" height="50" relative="1" as="geometry">
            <mxPoint x="1354.2000000000003" y="-507" as="sourcePoint" />
            <mxPoint x="1472" y="-528" as="targetPoint" />
          </mxGeometry>
        </mxCell>
        <mxCell id="IGbk30I3KVgZnR77NlU7-160" value="theses id" style="ellipse;whiteSpace=wrap;html=1;" vertex="1" parent="1">
          <mxGeometry x="1324" y="-590" width="48" height="42" as="geometry" />
        </mxCell>
        <mxCell id="IGbk30I3KVgZnR77NlU7-161" value="" style="endArrow=none;html=1;rounded=0;entryX=0.124;entryY=0;entryDx=0;entryDy=0;exitX=0.5;exitY=1;exitDx=0;exitDy=0;entryPerimeter=0;" edge="1" parent="1" source="IGbk30I3KVgZnR77NlU7-162" target="IGbk30I3KVgZnR77NlU7-258">
          <mxGeometry width="50" height="50" relative="1" as="geometry">
            <mxPoint x="1282" y="-465" as="sourcePoint" />
            <mxPoint x="1302.9919999999997" y="-508.77" as="targetPoint" />
          </mxGeometry>
        </mxCell>
        <mxCell id="IGbk30I3KVgZnR77NlU7-162" value="presentation date" style="ellipse;whiteSpace=wrap;html=1;" vertex="1" parent="1">
          <mxGeometry x="1207" y="-577" width="79" height="40" as="geometry" />
        </mxCell>
        <mxCell id="IGbk30I3KVgZnR77NlU7-163" value="title" style="ellipse;whiteSpace=wrap;html=1;" vertex="1" parent="1">
          <mxGeometry x="1372" y="-588" width="60" height="28" as="geometry" />
        </mxCell>
        <mxCell id="IGbk30I3KVgZnR77NlU7-164" value="created at" style="ellipse;whiteSpace=wrap;html=1;" vertex="1" parent="1">
          <mxGeometry x="1432" y="-595" width="60" height="37" as="geometry" />
        </mxCell>
        <mxCell id="IGbk30I3KVgZnR77NlU7-165" value="description" style="ellipse;whiteSpace=wrap;html=1;" vertex="1" parent="1">
          <mxGeometry x="1493" y="-590" width="75" height="34" as="geometry" />
        </mxCell>
        <mxCell id="IGbk30I3KVgZnR77NlU7-166" value="" style="endArrow=none;html=1;rounded=0;exitX=0.5;exitY=0;exitDx=0;exitDy=0;exitPerimeter=0;entryX=0.373;entryY=0.985;entryDx=0;entryDy=0;entryPerimeter=0;" edge="1" parent="1" source="IGbk30I3KVgZnR77NlU7-258" target="IGbk30I3KVgZnR77NlU7-163">
          <mxGeometry width="50" height="50" relative="1" as="geometry">
            <mxPoint x="1392.384" y="-505.99699999999984" as="sourcePoint" />
            <mxPoint x="1492" y="-505" as="targetPoint" />
          </mxGeometry>
        </mxCell>
        <mxCell id="IGbk30I3KVgZnR77NlU7-167" value="" style="endArrow=none;html=1;rounded=0;entryX=0.04;entryY=0.729;entryDx=0;entryDy=0;entryPerimeter=0;exitX=0.84;exitY=0.016;exitDx=0;exitDy=0;exitPerimeter=0;" edge="1" parent="1" source="IGbk30I3KVgZnR77NlU7-258" target="IGbk30I3KVgZnR77NlU7-165">
          <mxGeometry width="50" height="50" relative="1" as="geometry">
            <mxPoint x="1431.9" y="-505.99699999999984" as="sourcePoint" />
            <mxPoint x="1513" y="-506" as="targetPoint" />
          </mxGeometry>
        </mxCell>
        <mxCell id="IGbk30I3KVgZnR77NlU7-168" value="" style="endArrow=none;html=1;rounded=0;exitX=0;exitY=1;exitDx=0;exitDy=0;entryX=0.681;entryY=0.032;entryDx=0;entryDy=0;entryPerimeter=0;" edge="1" parent="1" source="IGbk30I3KVgZnR77NlU7-164" target="IGbk30I3KVgZnR77NlU7-258">
          <mxGeometry width="50" height="50" relative="1" as="geometry">
            <mxPoint x="1416" y="-348" as="sourcePoint" />
            <mxPoint x="1406.0000000000005" y="-507" as="targetPoint" />
          </mxGeometry>
        </mxCell>
        <mxCell id="IGbk30I3KVgZnR77NlU7-169" value="&lt;font style=&quot;font-size: 18px;&quot;&gt;Έχει&lt;/font&gt;" style="rhombus;whiteSpace=wrap;html=1;" vertex="1" parent="1">
          <mxGeometry x="-37" y="-351" width="80" height="80" as="geometry" />
        </mxCell>
        <mxCell id="IGbk30I3KVgZnR77NlU7-170" value="" style="endArrow=none;html=1;rounded=0;exitX=1;exitY=0.5;exitDx=0;exitDy=0;entryX=0;entryY=0.5;entryDx=0;entryDy=0;" edge="1" parent="1" source="IGbk30I3KVgZnR77NlU7-1" target="IGbk30I3KVgZnR77NlU7-169">
          <mxGeometry width="50" height="50" relative="1" as="geometry">
            <mxPoint x="-207" y="-379.5" as="sourcePoint" />
            <mxPoint x="-51.5" y="-383.5" as="targetPoint" />
          </mxGeometry>
        </mxCell>
        <mxCell id="IGbk30I3KVgZnR77NlU7-172" value="1" style="text;html=1;align=center;verticalAlign=middle;whiteSpace=wrap;rounded=0;" vertex="1" parent="1">
          <mxGeometry x="-122" y="-342" width="60" height="30" as="geometry" />
        </mxCell>
        <mxCell id="IGbk30I3KVgZnR77NlU7-177" value="" style="endArrow=none;html=1;rounded=0;entryX=1;entryY=0.5;entryDx=0;entryDy=0;exitX=0.01;exitY=0.533;exitDx=0;exitDy=0;exitPerimeter=0;" edge="1" parent="1" source="IGbk30I3KVgZnR77NlU7-255" target="IGbk30I3KVgZnR77NlU7-169">
          <mxGeometry width="50" height="50" relative="1" as="geometry">
            <mxPoint x="214" y="-190.50000000000023" as="sourcePoint" />
            <mxPoint x="-61" y="1" as="targetPoint" />
          </mxGeometry>
        </mxCell>
        <mxCell id="IGbk30I3KVgZnR77NlU7-178" value="1" style="text;html=1;align=center;verticalAlign=middle;whiteSpace=wrap;rounded=0;" vertex="1" parent="1">
          <mxGeometry x="53" y="-315" width="60" height="30" as="geometry" />
        </mxCell>
        <mxCell id="IGbk30I3KVgZnR77NlU7-179" value="Έχει" style="rhombus;whiteSpace=wrap;html=1;fontSize=20;" vertex="1" parent="1">
          <mxGeometry x="229" y="-105" width="80" height="80" as="geometry" />
        </mxCell>
        <mxCell id="IGbk30I3KVgZnR77NlU7-180" value="" style="endArrow=none;html=1;rounded=0;entryX=0.5;entryY=1;entryDx=0;entryDy=0;entryPerimeter=0;exitX=0.5;exitY=0;exitDx=0;exitDy=0;" edge="1" parent="1" source="IGbk30I3KVgZnR77NlU7-179" target="IGbk30I3KVgZnR77NlU7-255">
          <mxGeometry width="50" height="50" relative="1" as="geometry">
            <mxPoint x="210" y="-68" as="sourcePoint" />
            <mxPoint x="267" y="-165.4079999999999" as="targetPoint" />
          </mxGeometry>
        </mxCell>
        <mxCell id="IGbk30I3KVgZnR77NlU7-181" value="1" style="text;html=1;align=center;verticalAlign=middle;whiteSpace=wrap;rounded=0;" vertex="1" parent="1">
          <mxGeometry x="236.5" y="-136" width="29" height="27" as="geometry" />
        </mxCell>
        <mxCell id="IGbk30I3KVgZnR77NlU7-184" value="" style="endArrow=none;html=1;rounded=0;entryX=0.5;entryY=1;entryDx=0;entryDy=0;exitX=0.5;exitY=0;exitDx=0;exitDy=0;exitPerimeter=0;" edge="1" parent="1" source="IGbk30I3KVgZnR77NlU7-244" target="IGbk30I3KVgZnR77NlU7-179">
          <mxGeometry width="50" height="50" relative="1" as="geometry">
            <mxPoint x="269" y="28" as="sourcePoint" />
            <mxPoint x="279" y="-2" as="targetPoint" />
          </mxGeometry>
        </mxCell>
        <mxCell id="IGbk30I3KVgZnR77NlU7-185" value="1" style="text;html=1;align=center;verticalAlign=middle;whiteSpace=wrap;rounded=0;" vertex="1" parent="1">
          <mxGeometry x="269" y="-17" width="22.5" height="30" as="geometry" />
        </mxCell>
        <mxCell id="IGbk30I3KVgZnR77NlU7-186" value="&lt;font style=&quot;font-size: 15px;&quot;&gt;Δημιουργεί / Δημιουργείται από&lt;/font&gt;" style="rhombus;whiteSpace=wrap;html=1;" vertex="1" parent="1">
          <mxGeometry x="533" y="-174" width="122" height="109" as="geometry" />
        </mxCell>
        <mxCell id="IGbk30I3KVgZnR77NlU7-187" value="" style="endArrow=none;html=1;rounded=0;exitX=1;exitY=0.5;exitDx=0;exitDy=0;exitPerimeter=0;" edge="1" parent="1" source="IGbk30I3KVgZnR77NlU7-244" target="IGbk30I3KVgZnR77NlU7-186">
          <mxGeometry width="50" height="50" relative="1" as="geometry">
            <mxPoint x="286.99999999999955" y="51.01999999999998" as="sourcePoint" />
            <mxPoint x="489" y="-59" as="targetPoint" />
          </mxGeometry>
        </mxCell>
        <mxCell id="IGbk30I3KVgZnR77NlU7-188" value="" style="endArrow=none;html=1;rounded=0;exitX=1;exitY=0;exitDx=0;exitDy=0;entryX=0;entryY=0.5;entryDx=0;entryDy=0;" edge="1" parent="1" source="IGbk30I3KVgZnR77NlU7-186" target="IGbk30I3KVgZnR77NlU7-33">
          <mxGeometry width="50" height="50" relative="1" as="geometry">
            <mxPoint x="556" y="-109" as="sourcePoint" />
            <mxPoint x="606" y="-159" as="targetPoint" />
          </mxGeometry>
        </mxCell>
        <mxCell id="IGbk30I3KVgZnR77NlU7-189" value="Ν" style="text;html=1;align=center;verticalAlign=middle;whiteSpace=wrap;rounded=0;" vertex="1" parent="1">
          <mxGeometry x="357" y="-32" width="60" height="30" as="geometry" />
        </mxCell>
        <mxCell id="IGbk30I3KVgZnR77NlU7-190" value="1" style="text;html=1;align=center;verticalAlign=middle;whiteSpace=wrap;rounded=0;" vertex="1" parent="1">
          <mxGeometry x="638" y="-345" width="36" height="30" as="geometry" />
        </mxCell>
        <mxCell id="IGbk30I3KVgZnR77NlU7-194" value="&lt;font style=&quot;font-size: 20px;&quot;&gt;Καταχωρεί/ Καταχωρείται από&lt;/font&gt;" style="rhombus;whiteSpace=wrap;html=1;" vertex="1" parent="1">
          <mxGeometry x="243" y="-640" width="138" height="145" as="geometry" />
        </mxCell>
        <mxCell id="IGbk30I3KVgZnR77NlU7-195" value="" style="endArrow=none;html=1;rounded=0;exitX=0.5;exitY=0;exitDx=0;exitDy=0;entryX=0.504;entryY=1;entryDx=0;entryDy=0;entryPerimeter=0;" edge="1" parent="1" source="IGbk30I3KVgZnR77NlU7-194" target="IGbk30I3KVgZnR77NlU7-64">
          <mxGeometry width="50" height="50" relative="1" as="geometry">
            <mxPoint x="229" y="-664" as="sourcePoint" />
            <mxPoint x="279" y="-714" as="targetPoint" />
          </mxGeometry>
        </mxCell>
        <mxCell id="IGbk30I3KVgZnR77NlU7-196" value="" style="endArrow=none;html=1;rounded=0;entryX=0.152;entryY=0.663;entryDx=0;entryDy=0;entryPerimeter=0;exitX=1;exitY=0.25;exitDx=0;exitDy=0;" edge="1" parent="1" source="IGbk30I3KVgZnR77NlU7-1" target="IGbk30I3KVgZnR77NlU7-194">
          <mxGeometry width="50" height="50" relative="1" as="geometry">
            <mxPoint x="-191" y="-398" as="sourcePoint" />
            <mxPoint x="261.25" y="-570.62" as="targetPoint" />
          </mxGeometry>
        </mxCell>
        <mxCell id="IGbk30I3KVgZnR77NlU7-197" value="" style="endArrow=none;html=1;rounded=0;exitX=0.812;exitY=0.652;exitDx=0;exitDy=0;entryX=0;entryY=0.5;entryDx=0;entryDy=0;exitPerimeter=0;" edge="1" parent="1" source="IGbk30I3KVgZnR77NlU7-194" target="IGbk30I3KVgZnR77NlU7-33">
          <mxGeometry width="50" height="50" relative="1" as="geometry">
            <mxPoint x="421" y="-481" as="sourcePoint" />
            <mxPoint x="471" y="-531" as="targetPoint" />
          </mxGeometry>
        </mxCell>
        <mxCell id="IGbk30I3KVgZnR77NlU7-198" value="Ν" style="text;html=1;align=center;verticalAlign=middle;whiteSpace=wrap;rounded=0;" vertex="1" parent="1">
          <mxGeometry x="43" y="-549" width="60" height="30" as="geometry" />
        </mxCell>
        <mxCell id="IGbk30I3KVgZnR77NlU7-199" value="Ν" style="text;html=1;align=center;verticalAlign=middle;whiteSpace=wrap;rounded=0;" vertex="1" parent="1">
          <mxGeometry x="482" y="-537" width="60" height="30" as="geometry" />
        </mxCell>
        <mxCell id="IGbk30I3KVgZnR77NlU7-205" value="" style="endArrow=none;html=1;rounded=0;entryX=0.5;entryY=1;entryDx=0;entryDy=0;exitX=0.339;exitY=0.943;exitDx=0;exitDy=0;exitPerimeter=0;" edge="1" parent="1" source="IGbk30I3KVgZnR77NlU7-261" target="IGbk30I3KVgZnR77NlU7-206">
          <mxGeometry width="50" height="50" relative="1" as="geometry">
            <mxPoint x="798.0999999999999" y="-130.65499999999997" as="sourcePoint" />
            <mxPoint x="902" y="-185" as="targetPoint" />
          </mxGeometry>
        </mxCell>
        <mxCell id="IGbk30I3KVgZnR77NlU7-206" value="&lt;u&gt;id&lt;/u&gt;" style="ellipse;whiteSpace=wrap;html=1;" vertex="1" parent="1">
          <mxGeometry x="823" y="-50.5" width="35" height="30" as="geometry" />
        </mxCell>
        <mxCell id="IGbk30I3KVgZnR77NlU7-207" value="" style="endArrow=none;html=1;rounded=0;exitX=0.568;exitY=0.975;exitDx=0;exitDy=0;exitPerimeter=0;" edge="1" parent="1" source="IGbk30I3KVgZnR77NlU7-261" target="IGbk30I3KVgZnR77NlU7-208">
          <mxGeometry width="50" height="50" relative="1" as="geometry">
            <mxPoint x="823.9999999999995" y="-128" as="sourcePoint" />
            <mxPoint x="1037" y="-194" as="targetPoint" />
          </mxGeometry>
        </mxCell>
        <mxCell id="IGbk30I3KVgZnR77NlU7-208" value="theses id" style="ellipse;whiteSpace=wrap;html=1;" vertex="1" parent="1">
          <mxGeometry x="870.5" y="-50.5" width="48" height="42" as="geometry" />
        </mxCell>
        <mxCell id="IGbk30I3KVgZnR77NlU7-209" value="" style="endArrow=none;html=1;rounded=0;entryX=0.196;entryY=0.99;entryDx=0;entryDy=0;exitX=0.5;exitY=1;exitDx=0;exitDy=0;entryPerimeter=0;" edge="1" parent="1" source="IGbk30I3KVgZnR77NlU7-210" target="IGbk30I3KVgZnR77NlU7-261">
          <mxGeometry width="50" height="50" relative="1" as="geometry">
            <mxPoint x="847" y="-131" as="sourcePoint" />
            <mxPoint x="776.4920000000002" y="-126.99700000000007" as="targetPoint" />
          </mxGeometry>
        </mxCell>
        <mxCell id="IGbk30I3KVgZnR77NlU7-210" value="submitted at" style="ellipse;whiteSpace=wrap;html=1;" vertex="1" parent="1">
          <mxGeometry x="738" y="-61" width="79" height="40" as="geometry" />
        </mxCell>
        <mxCell id="IGbk30I3KVgZnR77NlU7-211" value="professor id" style="ellipse;whiteSpace=wrap;html=1;" vertex="1" parent="1">
          <mxGeometry x="920" y="-39" width="59" height="32" as="geometry" />
        </mxCell>
        <mxCell id="IGbk30I3KVgZnR77NlU7-212" value="score" style="ellipse;whiteSpace=wrap;html=1;" vertex="1" parent="1">
          <mxGeometry x="986" y="-48" width="60" height="37" as="geometry" />
        </mxCell>
        <mxCell id="IGbk30I3KVgZnR77NlU7-213" value="criteria" style="ellipse;whiteSpace=wrap;html=1;" vertex="1" parent="1">
          <mxGeometry x="1030" y="-82" width="50" height="34" as="geometry" />
        </mxCell>
        <mxCell id="IGbk30I3KVgZnR77NlU7-214" value="" style="endArrow=none;html=1;rounded=0;exitX=0;exitY=0;exitDx=75;exitDy=60;exitPerimeter=0;entryX=0.297;entryY=0.154;entryDx=0;entryDy=0;entryPerimeter=0;" edge="1" parent="1" source="IGbk30I3KVgZnR77NlU7-261" target="IGbk30I3KVgZnR77NlU7-211">
          <mxGeometry width="50" height="50" relative="1" as="geometry">
            <mxPoint x="846.4959999999996" y="-127.35100000000011" as="sourcePoint" />
            <mxPoint x="1057" y="-171" as="targetPoint" />
          </mxGeometry>
        </mxCell>
        <mxCell id="IGbk30I3KVgZnR77NlU7-215" value="" style="endArrow=none;html=1;rounded=0;entryX=0.04;entryY=0.729;entryDx=0;entryDy=0;entryPerimeter=0;exitX=1;exitY=1;exitDx=0;exitDy=0;exitPerimeter=0;" edge="1" parent="1" source="IGbk30I3KVgZnR77NlU7-261" target="IGbk30I3KVgZnR77NlU7-213">
          <mxGeometry width="50" height="50" relative="1" as="geometry">
            <mxPoint x="883.1999999999998" y="-130.65499999999997" as="sourcePoint" />
            <mxPoint x="1078" y="-172" as="targetPoint" />
          </mxGeometry>
        </mxCell>
        <mxCell id="IGbk30I3KVgZnR77NlU7-216" value="" style="endArrow=none;html=1;rounded=0;exitX=0;exitY=1;exitDx=0;exitDy=0;entryX=0.939;entryY=0.975;entryDx=0;entryDy=0;entryPerimeter=0;" edge="1" parent="1" source="IGbk30I3KVgZnR77NlU7-212" target="IGbk30I3KVgZnR77NlU7-261">
          <mxGeometry width="50" height="50" relative="1" as="geometry">
            <mxPoint x="981" y="-14" as="sourcePoint" />
            <mxPoint x="861" y="-128" as="targetPoint" />
          </mxGeometry>
        </mxCell>
        <mxCell id="IGbk30I3KVgZnR77NlU7-219" value="Καταχωρεί/ Καταχωρείται από" style="rhombus;whiteSpace=wrap;html=1;" vertex="1" parent="1">
          <mxGeometry x="732.5" y="-359.5" width="131" height="110" as="geometry" />
        </mxCell>
        <mxCell id="IGbk30I3KVgZnR77NlU7-220" value="" style="endArrow=none;html=1;rounded=0;exitX=0.5;exitY=1;exitDx=0;exitDy=0;entryX=0.5;entryY=0;entryDx=0;entryDy=0;" edge="1" parent="1" source="IGbk30I3KVgZnR77NlU7-33" target="IGbk30I3KVgZnR77NlU7-219">
          <mxGeometry width="50" height="50" relative="1" as="geometry">
            <mxPoint x="964" y="-233" as="sourcePoint" />
            <mxPoint x="1014" y="-283" as="targetPoint" />
          </mxGeometry>
        </mxCell>
        <mxCell id="IGbk30I3KVgZnR77NlU7-221" value="" style="endArrow=none;html=1;rounded=0;exitX=0.5;exitY=1;exitDx=0;exitDy=0;entryX=0.49;entryY=0;entryDx=0;entryDy=0;entryPerimeter=0;" edge="1" parent="1" source="IGbk30I3KVgZnR77NlU7-219" target="IGbk30I3KVgZnR77NlU7-261">
          <mxGeometry width="50" height="50" relative="1" as="geometry">
            <mxPoint x="1022" y="-278" as="sourcePoint" />
            <mxPoint x="800.616" y="-183.69600000000014" as="targetPoint" />
          </mxGeometry>
        </mxCell>
        <mxCell id="IGbk30I3KVgZnR77NlU7-222" value="Ν" style="text;html=1;align=center;verticalAlign=middle;whiteSpace=wrap;rounded=0;" vertex="1" parent="1">
          <mxGeometry x="792" y="-233" width="60" height="30" as="geometry" />
        </mxCell>
        <mxCell id="IGbk30I3KVgZnR77NlU7-223" value="1" style="text;html=1;align=center;verticalAlign=middle;whiteSpace=wrap;rounded=0;" vertex="1" parent="1">
          <mxGeometry x="798" y="-402" width="33" height="30" as="geometry" />
        </mxCell>
        <mxCell id="IGbk30I3KVgZnR77NlU7-226" value="&lt;font style=&quot;font-size: 20px;&quot;&gt;Έχει&lt;/font&gt;" style="rhombus;whiteSpace=wrap;html=1;" vertex="1" parent="1">
          <mxGeometry x="482" y="-283" width="80" height="80" as="geometry" />
        </mxCell>
        <mxCell id="IGbk30I3KVgZnR77NlU7-227" value="" style="endArrow=none;html=1;rounded=0;exitX=1;exitY=0.5;exitDx=0;exitDy=0;entryX=0;entryY=0.5;entryDx=0;entryDy=0;exitPerimeter=0;" edge="1" parent="1" source="IGbk30I3KVgZnR77NlU7-255" target="IGbk30I3KVgZnR77NlU7-226">
          <mxGeometry width="50" height="50" relative="1" as="geometry">
            <mxPoint x="314" y="-190.50000000000023" as="sourcePoint" />
            <mxPoint x="410" y="-243" as="targetPoint" />
          </mxGeometry>
        </mxCell>
        <mxCell id="IGbk30I3KVgZnR77NlU7-228" value="" style="endArrow=none;html=1;rounded=0;exitX=1;exitY=0.5;exitDx=0;exitDy=0;entryX=0;entryY=0.433;entryDx=0;entryDy=0;fontStyle=0;startSize=6;endSize=6;jumpStyle=arc;entryPerimeter=0;" edge="1" parent="1" source="IGbk30I3KVgZnR77NlU7-226" target="IGbk30I3KVgZnR77NlU7-261">
          <mxGeometry width="50" height="50" relative="1" as="geometry">
            <mxPoint x="649" y="97" as="sourcePoint" />
            <mxPoint x="750" y="-157.50000000000023" as="targetPoint" />
          </mxGeometry>
        </mxCell>
        <mxCell id="IGbk30I3KVgZnR77NlU7-229" value="1" style="text;html=1;align=center;verticalAlign=middle;whiteSpace=wrap;rounded=0;" vertex="1" parent="1">
          <mxGeometry x="411" y="-224" width="32" height="30" as="geometry" />
        </mxCell>
        <mxCell id="IGbk30I3KVgZnR77NlU7-230" value="1" style="text;html=1;align=center;verticalAlign=middle;whiteSpace=wrap;rounded=0;" vertex="1" parent="1">
          <mxGeometry x="662" y="-221" width="30" height="30" as="geometry" />
        </mxCell>
        <mxCell id="IGbk30I3KVgZnR77NlU7-233" value="Έχει" style="rhombus;whiteSpace=wrap;html=1;fontSize=20;" vertex="1" parent="1">
          <mxGeometry x="1165" y="-288" width="80" height="80" as="geometry" />
        </mxCell>
        <mxCell id="IGbk30I3KVgZnR77NlU7-234" value="" style="endArrow=none;html=1;rounded=0;exitX=1;exitY=1;exitDx=0;exitDy=0;entryX=0;entryY=0;entryDx=0;entryDy=0;" edge="1" parent="1" source="IGbk30I3KVgZnR77NlU7-33" target="IGbk30I3KVgZnR77NlU7-233">
          <mxGeometry width="50" height="50" relative="1" as="geometry">
            <mxPoint x="1137" y="-347" as="sourcePoint" />
            <mxPoint x="1187" y="-397" as="targetPoint" />
          </mxGeometry>
        </mxCell>
        <mxCell id="IGbk30I3KVgZnR77NlU7-235" value="1" style="text;html=1;align=center;verticalAlign=middle;whiteSpace=wrap;rounded=0;" vertex="1" parent="1">
          <mxGeometry x="1039" y="-357.5" width="60" height="30" as="geometry" />
        </mxCell>
        <mxCell id="IGbk30I3KVgZnR77NlU7-236" value="" style="endArrow=none;html=1;rounded=0;entryX=0.5;entryY=1;entryDx=0;entryDy=0;exitX=0.5;exitY=0;exitDx=0;exitDy=0;exitPerimeter=0;" edge="1" parent="1">
          <mxGeometry width="50" height="50" relative="1" as="geometry">
            <mxPoint x="878.5" y="233.5" as="sourcePoint" />
            <mxPoint x="1208" y="-208" as="targetPoint" />
          </mxGeometry>
        </mxCell>
        <mxCell id="IGbk30I3KVgZnR77NlU7-237" value="Ν" style="text;html=1;align=center;verticalAlign=middle;whiteSpace=wrap;rounded=0;" vertex="1" parent="1">
          <mxGeometry x="1156" y="-166" width="60" height="30" as="geometry" />
        </mxCell>
        <mxCell id="IGbk30I3KVgZnR77NlU7-238" value="" style="endArrow=none;html=1;rounded=0;exitX=1;exitY=1;exitDx=0;exitDy=0;jumpStyle=arc;entryX=0;entryY=0;entryDx=0;entryDy=0;exitPerimeter=0;" edge="1" parent="1" source="IGbk30I3KVgZnR77NlU7-255" target="IGbk30I3KVgZnR77NlU7-239">
          <mxGeometry width="50" height="50" relative="1" as="geometry">
            <mxPoint x="314" y="-165.00000000000023" as="sourcePoint" />
            <mxPoint x="440" y="-85" as="targetPoint" />
          </mxGeometry>
        </mxCell>
        <mxCell id="IGbk30I3KVgZnR77NlU7-239" value="Έχει" style="rhombus;whiteSpace=wrap;html=1;fontSize=20;" vertex="1" parent="1">
          <mxGeometry x="526" y="17" width="108" height="103" as="geometry" />
        </mxCell>
        <mxCell id="IGbk30I3KVgZnR77NlU7-240" value="1" style="text;html=1;align=center;verticalAlign=middle;whiteSpace=wrap;rounded=0;" vertex="1" parent="1">
          <mxGeometry x="360" y="-134.5" width="60" height="30" as="geometry" />
        </mxCell>
        <mxCell id="IGbk30I3KVgZnR77NlU7-241" value="" style="endArrow=none;html=1;rounded=0;exitX=1;exitY=1;exitDx=0;exitDy=0;entryX=0;entryY=0.5;entryDx=0;entryDy=0;entryPerimeter=0;" edge="1" parent="1" source="IGbk30I3KVgZnR77NlU7-239" target="IGbk30I3KVgZnR77NlU7-249">
          <mxGeometry width="50" height="50" relative="1" as="geometry">
            <mxPoint x="619" y="218" as="sourcePoint" />
            <mxPoint x="841" y="222" as="targetPoint" />
          </mxGeometry>
        </mxCell>
        <mxCell id="IGbk30I3KVgZnR77NlU7-242" value="Ν" style="text;html=1;align=center;verticalAlign=middle;whiteSpace=wrap;rounded=0;" vertex="1" parent="1">
          <mxGeometry x="686" y="116" width="60" height="30" as="geometry" />
        </mxCell>
        <mxCell id="IGbk30I3KVgZnR77NlU7-244" value="" style="verticalLabelPosition=bottom;verticalAlign=top;html=1;shape=mxgraph.basic.frame;dx=10;whiteSpace=wrap;" vertex="1" parent="1">
          <mxGeometry x="198" y="34" width="142" height="70" as="geometry" />
        </mxCell>
        <mxCell id="IGbk30I3KVgZnR77NlU7-249" value="" style="verticalLabelPosition=bottom;verticalAlign=top;html=1;shape=mxgraph.basic.frame;dx=10;whiteSpace=wrap;" vertex="1" parent="1">
          <mxGeometry x="784" y="233.5" width="183" height="83" as="geometry" />
        </mxCell>
        <mxCell id="IGbk30I3KVgZnR77NlU7-250" value="&lt;font&gt;Commitee member Invitation&lt;/font&gt;" style="text;html=1;align=center;verticalAlign=middle;resizable=0;points=[];autosize=1;strokeColor=none;fillColor=none;" vertex="1" parent="1">
          <mxGeometry x="790" y="262" width="171" height="26" as="geometry" />
        </mxCell>
        <mxCell id="IGbk30I3KVgZnR77NlU7-251" value="&lt;font style=&quot;font-size: 16px;&quot;&gt;Theses Topic&lt;/font&gt;" style="text;html=1;align=center;verticalAlign=middle;resizable=0;points=[];autosize=1;strokeColor=none;fillColor=none;" vertex="1" parent="1">
          <mxGeometry x="211" y="53.5" width="112" height="31" as="geometry" />
        </mxCell>
        <mxCell id="IGbk30I3KVgZnR77NlU7-255" value="" style="verticalLabelPosition=bottom;verticalAlign=top;html=1;shape=mxgraph.basic.frame;dx=10;whiteSpace=wrap;" vertex="1" parent="1">
          <mxGeometry x="219" y="-215" width="100" height="60" as="geometry" />
        </mxCell>
        <mxCell id="IGbk30I3KVgZnR77NlU7-256" value="&lt;font style=&quot;font-size: 19px;&quot;&gt;Theses&lt;/font&gt;" style="text;html=1;align=center;verticalAlign=middle;resizable=0;points=[];autosize=1;strokeColor=none;fillColor=none;" vertex="1" parent="1">
          <mxGeometry x="227" y="-201" width="80" height="35" as="geometry" />
        </mxCell>
        <mxCell id="IGbk30I3KVgZnR77NlU7-258" value="" style="verticalLabelPosition=bottom;verticalAlign=top;html=1;shape=mxgraph.basic.frame;dx=10;whiteSpace=wrap;" vertex="1" parent="1">
          <mxGeometry x="1286" y="-493" width="177" height="75" as="geometry" />
        </mxCell>
        <mxCell id="IGbk30I3KVgZnR77NlU7-260" value="&lt;font style=&quot;font-size: 21px;&quot;&gt;Announcements&lt;/font&gt;" style="text;html=1;align=center;verticalAlign=middle;resizable=0;points=[];autosize=1;strokeColor=none;fillColor=none;" vertex="1" parent="1">
          <mxGeometry x="1289.5" y="-474" width="170" height="37" as="geometry" />
        </mxCell>
        <mxCell id="IGbk30I3KVgZnR77NlU7-261" value="" style="verticalLabelPosition=bottom;verticalAlign=top;html=1;shape=mxgraph.basic.frame;dx=10;whiteSpace=wrap;" vertex="1" parent="1">
          <mxGeometry x="758" y="-191" width="124" height="65" as="geometry" />
        </mxCell>
        <mxCell id="IGbk30I3KVgZnR77NlU7-263" value="&lt;font style=&quot;font-size: 19px;&quot;&gt;Grades&lt;/font&gt;" style="text;html=1;align=center;verticalAlign=middle;resizable=0;points=[];autosize=1;strokeColor=none;fillColor=none;" vertex="1" parent="1">
          <mxGeometry x="780" y="-176" width="80" height="35" as="geometry" />
        </mxCell>
        <mxCell id="IGbk30I3KVgZnR77NlU7-264" value="&lt;font style=&quot;font-size: 11px;&quot;&gt;Δημιουργεί/&lt;/font&gt;&lt;div&gt;&lt;font style=&quot;font-size: 11px;&quot;&gt;&amp;nbsp;Δημιουργείται από&lt;/font&gt;&lt;/div&gt;" style="rhombus;whiteSpace=wrap;html=1;fontSize=17;" vertex="1" parent="1">
          <mxGeometry x="1003" y="-483" width="145" height="95" as="geometry" />
        </mxCell>
        <mxCell id="IGbk30I3KVgZnR77NlU7-265" value="" style="endArrow=none;html=1;rounded=0;exitX=1;exitY=0.5;exitDx=0;exitDy=0;" edge="1" parent="1" source="IGbk30I3KVgZnR77NlU7-33" target="IGbk30I3KVgZnR77NlU7-264">
          <mxGeometry width="50" height="50" relative="1" as="geometry">
            <mxPoint x="909" y="-408" as="sourcePoint" />
            <mxPoint x="959" y="-458" as="targetPoint" />
          </mxGeometry>
        </mxCell>
        <mxCell id="IGbk30I3KVgZnR77NlU7-268" value="1" style="text;html=1;align=center;verticalAlign=middle;whiteSpace=wrap;rounded=0;" vertex="1" parent="1">
          <mxGeometry x="914" y="-440.5" width="32" height="30" as="geometry" />
        </mxCell>
        <mxCell id="IGbk30I3KVgZnR77NlU7-269" value="" style="endArrow=none;html=1;rounded=0;exitX=1;exitY=0.5;exitDx=0;exitDy=0;entryX=-0.021;entryY=0.595;entryDx=0;entryDy=0;entryPerimeter=0;" edge="1" parent="1" source="IGbk30I3KVgZnR77NlU7-264" target="IGbk30I3KVgZnR77NlU7-260">
          <mxGeometry width="50" height="50" relative="1" as="geometry">
            <mxPoint x="1182" y="-355" as="sourcePoint" />
            <mxPoint x="1232" y="-405" as="targetPoint" />
          </mxGeometry>
        </mxCell>
        <mxCell id="IGbk30I3KVgZnR77NlU7-270" value="Ν" style="text;html=1;align=center;verticalAlign=middle;whiteSpace=wrap;rounded=0;" vertex="1" parent="1">
          <mxGeometry x="1171" y="-472.5" width="60" height="30" as="geometry" />
        </mxCell>
      </root>
    </mxGraphModel>
  </diagram>
</mxfile>
